# xmcd
#
# Track frame offsets:
# 150
# 10975
# 18965
# 32485
# 38757
# 51320
# 64347
# 83747
# 97735
# 115900
# 133272
# 146612
# 157127
# 174652
# 191830
# 207590
# 220835
# 238382
#
# Disc length: 3355 seconds
#
#
# Revision: 4
# Processed by: cddbd v1.5.1PL0 Copyright (c) Steve Scherf et al.
# Submitted via: FreeRIP 2.942 
#
DISCID=080d1912
DTITLE=Zillertaler Schürzenjäger - Rebellion In Den Alpen [CD 1/2)
DYEAR=2000
DGENRE=Deutsch
TTITLE0=Die Berge Sind Mein Zuhaus
TTITLE1=Auf Der Jodleralm
TTITLE2=Grüne Tannen
TTITLE3=Hey Mann Polka
TTITLE4=Tirol I Bin A Kind Von Dir
TTITLE5=Ich Lieb Die Berge Meiner Heimat
TTITLE6=Frag Die Zigeunerin
TTITLE7=Ich Habe Dir Zu Danken
TTITLE8=Canada
TTITLE9=Logo Logo
TTITLE10=Ohne Musik Geht Nix
TTITLE11=Timple Boarischer
TTITLE12=Zillertaler Hochzeitsblues
TTITLE13=Mein Tirol, Ich Vermisse Dich
TTITLE14=Was Dann?
TTITLE15=Die Bajuwaren
TTITLE16=Alles Braucht Im Leben Seine Zeit
TTITLE17=Dahoam Ist Dahoam
EXTD=
EXTT0=
EXTT1=
EXTT2=
EXTT3=
EXTT4=
EXTT5=
EXTT6=
EXTT7=
EXTT8=
EXTT9=
EXTT10=
EXTT11=
EXTT12=
EXTT13=
EXTT14=
EXTT15=
EXTT16=
EXTT17=
PLAYORDER=
